<svg width="57" height="68" viewBox="0 0 57 68" fill="none" xmlns="http://www.w3.org/2000/svg">
<g filter="url(#filter0_d_86_1433)">
<path d="M37.8787 39.4465C35.14 42.1972 35.4823 47.7477 35.4823 47.7477H21.5929C21.5929 47.7477 21.8864 42.1972 19.1965 39.4465C16.2133 36.794 14.3059 32.9627 14.3059 28.6892C14.3059 20.8301 20.6637 14.4445 28.4887 14.4445C36.3137 14.4445 42.6715 20.8301 42.6715 28.6892C42.6715 32.9627 40.8131 36.794 37.8787 39.4465Z" fill="#C3FF17"/>
<path d="M35.8741 52.1194C35.8741 52.8562 35.2872 53.4456 34.5536 53.4456H22.4738C21.7402 53.4456 21.1533 52.8562 21.1533 52.1194C21.1533 51.3826 21.7402 50.7932 22.4738 50.7932H34.5047C35.2383 50.7932 35.8741 51.3826 35.8741 52.1194Z" fill="#D9FADD"/>
<path d="M34.0642 57.6208C34.0642 58.3576 33.4774 58.947 32.7438 58.947H24.283C23.5494 58.947 22.9625 58.3576 22.9625 57.6208C22.9625 56.884 23.5494 56.2946 24.283 56.2946H32.7438C33.4774 56.2946 34.0642 56.884 34.0642 57.6208Z" fill="#D9FADD"/>
<path d="M38.6131 39.9377C41.792 37.0396 43.6015 32.9627 43.6015 28.6892C43.6015 20.3389 36.8035 13.5112 28.4895 13.5112C20.1754 13.5112 13.3774 20.3389 13.3774 28.6892C13.3774 33.0609 15.2848 37.2361 18.5126 40.085C20.909 42.4919 20.6645 47.6003 20.6645 47.6495C20.6645 47.8951 20.7623 48.1406 20.909 48.3371C21.1046 48.5336 21.3492 48.6318 21.5937 48.6318H35.4342C35.6787 48.6318 35.9232 48.5336 36.1189 48.3371C36.3145 48.1406 36.3634 47.8951 36.3634 47.6495C36.3634 47.6003 36.1189 42.4919 38.5153 40.085C38.5642 40.0359 38.6131 39.9868 38.6131 39.9377ZM37.2437 38.7097C37.1459 38.7588 37.097 38.857 37.0481 38.9553C34.8962 41.2639 34.5539 45.0461 34.5049 46.8144H22.5229C22.474 44.997 22.0828 41.0674 19.7842 38.7588C16.8987 36.2046 15.2359 32.5697 15.2359 28.7384C15.2359 21.3704 21.2024 15.4269 28.4895 15.4269C35.8254 15.4269 41.7431 21.4195 41.7431 28.7384C41.7431 32.5206 40.1292 36.2046 37.2437 38.7097Z" fill="#5CCD6A"/>
<path d="M28.4893 17.4409C28.0002 17.4409 27.5601 17.8338 27.5601 18.3741C27.5601 18.8653 27.9513 19.3074 28.4893 19.3074C33.9668 19.3074 38.4172 23.7773 38.4172 29.2787C38.4172 29.7699 38.8085 30.212 39.3465 30.212C39.8355 30.212 40.2757 29.819 40.2757 29.2787C40.2757 22.7458 34.9938 17.4409 28.4893 17.4409Z" fill="#5CCD6A"/>
<path d="M36.8031 52.1194C36.8031 50.8423 35.7761 49.8599 34.5534 49.8599H22.4736C21.202 49.8599 20.2239 50.8914 20.2239 52.1194C20.2239 53.3965 21.2509 54.3789 22.4736 54.3789H34.5045C35.7761 54.3789 36.8031 53.3965 36.8031 52.1194ZM34.5045 52.5123H22.4736C22.229 52.5123 22.0823 52.3158 22.0823 52.1194C22.0823 51.8738 22.2779 51.7264 22.4736 51.7264H34.5045C34.749 51.7264 34.8958 51.9229 34.8958 52.1194C34.9447 52.365 34.749 52.5123 34.5045 52.5123Z" fill="#5CCD6A"/>
<path d="M32.744 55.3613H24.2833C23.0117 55.3613 22.0336 56.3928 22.0336 57.6208C22.0336 58.8979 23.0606 59.8803 24.2833 59.8803H32.744C34.0156 59.8803 34.9937 58.8488 34.9937 57.6208C34.9937 56.3928 33.9667 55.3613 32.744 55.3613ZM32.744 58.0137H24.2833C24.0387 58.0137 23.892 57.8173 23.892 57.6208C23.892 57.3752 24.0876 57.2278 24.2833 57.2278H32.744C32.9886 57.2278 33.1353 57.4243 33.1353 57.6208C33.1353 57.8664 32.9886 58.0137 32.744 58.0137Z" fill="#5CCD6A"/>
<path d="M29.4185 8.05898V1.77165C29.4185 1.28046 29.0272 0.838379 28.4893 0.838379C28.0002 0.838379 27.5601 1.23134 27.5601 1.77165V8.1081C27.5601 8.5993 27.9513 9.04138 28.4893 9.04138C29.0272 8.99226 29.4185 8.5993 29.4185 8.05898Z" fill="#5CCD6A"/>
<path d="M43.8946 5.50471C43.4544 5.20999 42.9164 5.35735 42.623 5.75031L39.1506 11.0061C38.8572 11.4482 39.0039 11.9885 39.3952 12.2832C39.5419 12.3815 39.7375 12.4306 39.8842 12.4306C40.1777 12.4306 40.4711 12.2832 40.6667 12.0376L44.1391 6.78182C44.4325 6.38887 44.2858 5.79943 43.8946 5.50471Z" fill="#5CCD6A"/>
<path d="M17.4363 12.2341C17.5831 12.2341 17.7787 12.185 17.9254 12.0868C18.3656 11.792 18.4634 11.2517 18.2188 10.8097L14.8443 5.50472C14.5509 5.06264 14.0129 4.9644 13.5728 5.21C13.1326 5.50472 13.0348 6.04504 13.2793 6.48711L16.6538 11.792C16.8495 12.0868 17.1429 12.2341 17.4363 12.2341Z" fill="#5CCD6A"/>
<path d="M4.47627 16.6549L10.0027 19.6512C10.1494 19.7494 10.2961 19.7494 10.4428 19.7494C10.7852 19.7494 11.0786 19.553 11.2742 19.2583C11.5188 18.8162 11.3721 18.2267 10.883 17.9811L5.35658 14.9848C4.91642 14.7392 4.32955 14.8866 4.08502 15.3778C3.88939 15.869 4.03611 16.4093 4.47627 16.6549Z" fill="#5CCD6A"/>
<path d="M46.5355 19.7986C46.6822 19.7986 46.8289 19.7495 46.9756 19.7004L52.502 16.7041C52.9422 16.4585 53.1378 15.9181 52.8933 15.427C52.6487 14.9849 52.1108 14.7884 51.6217 15.034L46.0953 18.0303C45.6552 18.2759 45.4595 18.8162 45.7041 19.3074C45.8508 19.6021 46.1931 19.7986 46.5355 19.7986Z" fill="#5CCD6A"/>
</g>
<defs>
<filter id="filter0_d_86_1433" x="0" y="0.838379" width="56.9998" height="67.0419" filterUnits="userSpaceOnUse" color-interpolation-filters="sRGB">
<feFlood flood-opacity="0" result="BackgroundImageFix"/>
<feColorMatrix in="SourceAlpha" type="matrix" values="0 0 0 0 0 0 0 0 0 0 0 0 0 0 0 0 0 0 127 0" result="hardAlpha"/>
<feOffset dy="4"/>
<feGaussianBlur stdDeviation="2"/>
<feComposite in2="hardAlpha" operator="out"/>
<feColorMatrix type="matrix" values="0 0 0 0 0 0 0 0 0 0 0 0 0 0 0 0 0 0 0.25 0"/>
<feBlend mode="normal" in2="BackgroundImageFix" result="effect1_dropShadow_86_1433"/>
<feBlend mode="normal" in="SourceGraphic" in2="effect1_dropShadow_86_1433" result="shape"/>
</filter>
</defs>
</svg>
